<svg width="979" height="194" viewBox="0 0 979 194" fill="none" xmlns="http://www.w3.org/2000/svg">
<path d="M4.20654 0.160952C6.51654 0.160952 8.82654 0.160952 11.2065 0.160952C11.2419 0.796868 11.2773 1.43278 11.3137 2.08797C11.6833 8.72326 12.0571 15.3583 12.4333 21.9932C12.5731 24.4675 12.7118 26.9417 12.8494 29.4161C13.0476 32.9783 13.2498 36.5404 13.4526 40.1024C13.5131 41.2037 13.5735 42.305 13.6358 43.4397C13.941 48.7331 14.3436 53.9281 15.2065 59.161C15.8665 59.161 16.5265 59.161 17.2065 59.161C17.9196 55.2771 18.3458 51.5613 18.4119 47.6146C18.4318 46.5539 18.4517 45.4933 18.4723 44.4005C18.489 43.2721 18.5057 42.1438 18.5229 40.9813C18.5437 39.8134 18.5645 38.6455 18.5859 37.4422C18.6511 33.7235 18.7102 30.0047 18.769 26.286C18.8122 23.7599 18.8559 21.2339 18.8999 18.7078C19.0068 12.5256 19.1086 6.34332 19.2065 0.160952C25.3589 0.0632962 25.3589 0.0632962 27.2065 0.160952C28.922 1.87637 28.5395 4.19091 28.7065 6.53986C28.7885 7.67794 28.8704 8.81602 28.9548 9.98859C29.0379 11.2211 29.121 12.4536 29.2065 13.7235C29.2941 14.9766 29.3817 16.2297 29.4719 17.5208C30.1032 26.848 30.5649 36.175 30.8647 45.5186C31.0237 50.1531 31.2836 54.5997 32.2065 59.161C33.1965 59.161 34.1865 59.161 35.2065 59.161C35.2065 39.691 35.2065 20.221 35.2065 0.160952C37.8465 0.160952 40.4865 0.160952 43.2065 0.160952C47.6844 21.604 50.2247 43.5121 50.7065 65.4109C50.7493 66.4464 50.7921 67.4818 50.8362 68.5486C50.9015 75.9157 49.2607 80.7121 44.2065 86.1609C41.4331 88.1336 41.4331 88.1336 38.8315 89.2234C37.9576 89.6063 37.0836 89.9892 36.1831 90.3836C35.5308 90.6401 34.8786 90.8967 34.2065 91.1609C33.9198 98.5683 34.3836 105.793 35.0815 113.161C36.1006 123.961 36.7482 134.768 37.3315 145.598C37.3758 146.42 37.4201 147.241 37.4658 148.087C37.7176 152.778 37.9642 157.47 38.2065 162.161C44.7127 162.264 51.2187 162.333 57.7256 162.381C59.9307 162.401 62.1358 162.428 64.3408 162.463C88.2273 162.832 111.999 160.401 130.234 143.255C138.273 134.671 142.21 124.363 145.207 113.161C145.384 112.584 145.561 112.006 145.744 111.411C146.77 106.424 146.392 101.189 146.392 96.1089C146.394 93.9978 146.412 91.8872 146.431 89.7762C146.508 71.959 141.487 59.7574 129.042 46.9305C112.763 31.6005 89.6234 30.0374 68.3315 29.536C66.95 29.4976 65.5685 29.4586 64.187 29.4188C60.8603 29.3257 57.5336 29.2399 54.2065 29.161C53.5362 24.8907 52.8709 20.6197 52.2065 16.3485C52.0158 15.1335 51.825 13.9186 51.6284 12.6668C51.4479 11.5034 51.2675 10.3401 51.0815 9.14142C50.8302 7.5311 50.8302 7.5311 50.5737 5.88825C50.2065 3.16095 50.2065 3.16095 50.2065 0.160952C56.0557 0.110903 61.9048 0.074931 67.7541 0.0510892C69.7372 0.0411328 71.7203 0.0275628 73.7034 0.0100736C105.418 -0.262288 136.963 4.89017 160.858 27.4571C169.424 36.0053 175.891 46.3456 179.488 57.9266C180.123 60.1528 180.123 60.1528 181.23 61.9969C182.62 65.0777 182.955 68.2105 183.332 71.5359C183.458 72.6357 183.458 72.6357 183.587 73.7576C184.591 83.5431 184.44 93.3396 184.207 103.161C184.188 104.379 184.17 105.597 184.152 106.852C183.212 128.929 172.124 150.298 156.277 165.368C129.08 188.922 92.8261 193.408 58.1518 193.259C56.8843 193.257 55.6167 193.256 54.3108 193.254C50.9934 193.25 47.676 193.241 44.3586 193.23C40.9525 193.219 37.5463 193.215 34.1401 193.21C27.4956 193.199 20.8511 193.182 14.2065 193.161C13.9216 172.121 14.7111 151.161 15.5972 130.145C15.7821 125.732 15.9608 121.32 16.1401 116.907C16.4897 108.325 16.8459 99.7428 17.2065 91.1609C16.2694 90.8748 15.3322 90.5886 14.3667 90.2938C8.44502 88.171 5.51746 83.3996 2.22216 78.3211C-0.336839 72.8783 0.0135835 66.7413 0.0190353 60.8485C0.019841 59.9164 0.0206466 58.9843 0.0214767 58.024C0.09472 49.0747 0.553161 40.1552 1.08154 31.2235C1.12074 30.5367 1.15995 29.8499 1.20034 29.1422C1.7662 19.4062 2.79344 9.8073 4.20654 0.160952Z" fill="#000000"/>
<path d="M453.206 44.1609C481.586 44.1609 509.966 44.1609 539.206 44.1609C539.206 49.7709 539.206 55.3809 539.206 61.1609C519.406 61.1609 499.606 61.1609 479.206 61.1609C479.206 74.3609 479.206 87.5609 479.206 101.161C495.376 101.161 511.546 101.161 528.206 101.161C528.206 106.771 528.206 112.381 528.206 118.161C512.036 118.161 495.866 118.161 479.206 118.161C479.206 134.001 479.206 149.841 479.206 166.161C499.666 166.161 520.126 166.161 541.206 166.161C541.206 172.101 541.206 178.041 541.206 184.161C529.88 184.183 518.554 184.202 507.228 184.213C501.969 184.218 496.711 184.225 491.452 184.236C486.382 184.247 481.312 184.253 476.241 184.256C474.302 184.258 472.363 184.261 470.424 184.267C467.718 184.274 465.012 184.275 462.306 184.274C461.496 184.278 460.686 184.282 459.852 184.285C454.321 184.275 454.321 184.275 453.206 183.161C453.11 181.364 453.085 179.563 453.086 177.764C453.085 176.593 453.083 175.422 453.082 174.215C453.086 172.919 453.089 171.623 453.093 170.288C453.093 168.918 453.093 167.548 453.092 166.179C453.092 162.45 453.098 158.721 453.105 154.991C453.111 151.098 453.112 147.205 453.113 143.312C453.116 135.935 453.124 128.558 453.134 121.181C453.148 111.216 453.153 101.25 453.159 91.2852C453.168 75.5771 453.188 59.869 453.206 44.1609Z" fill="#000000"/>
<path fill-rule="evenodd" clip-rule="evenodd" d="M440.701 111.085C439.783 105.532 437.28 101.782 432.806 98.4055C416.945 88.4593 392.508 91.005 377.42 101.726L375.701 103.085L373.732 104.57C364.464 112.055 354.848 124.354 353.42 136.47C352.441 152.587 354.58 164.84 365.178 177.46C373.15 185.754 383.994 189.379 395.336 189.605L397.951 189.585C399.8 189.572 401.649 189.541 403.498 189.491C421.102 188.472 435.206 177.617 446.701 165.085C445.859 163.643 445.423 162.894 444.946 162.171C444.431 161.391 443.869 160.643 442.701 159.085C440.418 159.085 439.438 159.085 438.589 159.419C437.95 159.669 437.386 160.109 436.396 160.878C431.602 165.345 427.079 168.744 420.951 171.148C412.031 173.958 402.106 175.335 393.513 170.898C386.959 166.483 384.868 161.428 382.701 154.085C384.656 153.511 386.661 152.94 388.699 152.36C404.217 147.941 421.613 142.988 433.084 131.886C438.813 125.506 441.107 119.779 440.701 111.085ZM417.201 111.085C417.239 111.253 417.274 111.419 417.307 111.585C418.229 116.152 417.579 120.065 415.326 124.21C411.911 129.067 407.219 132.05 402.201 135.085L400.232 136.304C400.208 136.317 400.184 136.331 400.16 136.344C400.127 136.363 400.094 136.381 400.061 136.399C400.012 136.426 399.963 136.453 399.914 136.479C399.843 136.518 399.772 136.556 399.701 136.595C394.332 139.464 388.464 140.635 382.529 141.82L382.508 141.824C382.305 141.864 382.102 141.905 381.898 141.945C381.886 141.948 381.874 141.95 381.862 141.953C381.857 141.954 381.852 141.955 381.848 141.956C381.836 141.958 381.825 141.96 381.813 141.962C381.806 141.964 381.798 141.965 381.791 141.967C381.773 141.97 381.756 141.974 381.739 141.977C381.559 142.013 381.38 142.049 381.201 142.085C381.006 139.644 380.964 137.318 381.091 135.085C381.557 126.9 384.298 119.95 390.138 113.023C396.714 106.288 402.881 104.743 412.201 106.085C413.879 107.086 414.691 107.57 415.325 108.226C415.844 108.763 416.243 109.416 416.902 110.562C416.949 110.644 416.997 110.729 417.047 110.816C417.097 110.903 417.148 110.993 417.201 111.085Z" fill="#000000"/>
<path fill-rule="evenodd" clip-rule="evenodd" d="M724.732 107.13C723.815 101.577 721.312 97.8261 716.838 94.45C700.977 84.5038 676.54 87.0495 661.451 97.7704L659.732 99.1297L657.764 100.614C648.496 108.1 638.88 120.398 637.451 132.515C636.472 148.632 638.612 160.884 649.209 173.505C657.182 181.798 668.026 185.424 679.367 185.649L681.982 185.63C683.832 185.617 685.681 185.585 687.529 185.536C705.133 184.516 719.237 173.662 730.732 161.13C729.891 159.687 729.454 158.938 728.977 158.216C728.462 157.436 727.9 156.687 726.732 155.13C724.45 155.13 723.47 155.13 722.62 155.463C721.982 155.714 721.417 156.153 720.428 156.923C715.633 161.389 711.111 164.788 704.982 167.192C696.063 170.002 686.138 171.379 677.545 166.942C670.991 162.527 668.899 157.472 666.732 150.13C668.688 149.555 670.693 148.984 672.731 148.404C688.249 143.986 705.644 139.033 717.115 127.931C722.845 121.551 725.139 115.824 724.732 107.13ZM701.232 107.13C701.27 107.297 701.306 107.464 701.339 107.63C702.26 112.196 701.611 116.11 699.357 120.255C695.942 125.112 691.25 128.094 686.232 131.13L684.264 132.349C684.24 132.362 684.216 132.375 684.192 132.389C684.159 132.407 684.125 132.425 684.092 132.444C684.043 132.471 683.995 132.497 683.946 132.524C683.875 132.563 683.804 132.601 683.732 132.639C678.364 135.509 672.496 136.68 666.56 137.864L666.539 137.868C666.336 137.909 666.133 137.949 665.93 137.99C665.918 137.992 665.906 137.995 665.893 137.997C665.889 137.998 665.884 137.999 665.879 138C665.868 138.002 665.856 138.005 665.845 138.007C665.837 138.008 665.83 138.01 665.822 138.011C665.805 138.015 665.787 138.018 665.77 138.022C665.591 138.058 665.412 138.094 665.232 138.13C665.038 135.688 664.995 133.363 665.123 131.13C665.589 122.945 668.33 115.995 674.17 109.067C680.746 102.333 686.912 100.787 696.232 102.13C697.911 103.13 698.723 103.614 699.356 104.27C699.875 104.807 700.275 105.46 700.933 106.607C700.98 106.689 701.029 106.773 701.078 106.86C701.128 106.947 701.18 107.037 701.232 107.13Z" fill="#000000"/>
<path fill-rule="evenodd" clip-rule="evenodd" d="M821.79 107.015C820.873 101.462 818.369 97.7117 813.896 94.3356C798.035 84.3894 773.598 86.9351 758.509 97.6559L756.79 99.0153L754.821 100.5C745.553 107.986 735.938 120.284 734.509 132.401C733.53 148.518 735.669 160.77 746.267 173.39C754.239 181.684 765.083 185.31 776.425 185.535L779.04 185.515C780.889 185.502 782.738 185.471 784.587 185.422C802.191 184.402 816.295 173.547 827.79 161.015C826.949 159.573 826.512 158.824 826.035 158.101C825.52 157.322 824.958 156.573 823.79 155.015C821.507 155.015 820.527 155.015 819.678 155.349C819.039 155.599 818.475 156.039 817.485 156.808C812.691 161.275 808.168 164.674 802.04 167.078C793.12 169.888 783.195 171.265 774.603 166.828C768.048 162.413 765.957 157.358 763.79 150.015C765.745 149.441 767.751 148.87 769.788 148.29C785.306 143.871 802.702 138.918 814.173 127.816C819.902 121.436 822.196 115.709 821.79 107.015ZM798.29 107.015C798.328 107.183 798.363 107.35 798.397 107.515C799.318 112.082 798.669 115.995 796.415 120.14C793 124.997 788.308 127.98 783.29 131.015L781.321 132.234C781.297 132.247 781.273 132.261 781.249 132.274C781.216 132.293 781.183 132.311 781.15 132.329C781.101 132.356 781.052 132.383 781.003 132.409C780.932 132.448 780.861 132.487 780.79 132.525C775.421 135.394 769.553 136.565 763.618 137.75L763.597 137.754C763.394 137.794 763.191 137.835 762.988 137.875C762.975 137.878 762.963 137.88 762.951 137.883C762.946 137.884 762.942 137.885 762.937 137.886C762.925 137.888 762.914 137.89 762.903 137.892C762.895 137.894 762.887 137.896 762.88 137.897C762.862 137.901 762.845 137.904 762.828 137.907C762.649 137.943 762.469 137.979 762.29 138.015C762.095 135.574 762.053 133.249 762.18 131.015C762.646 122.83 765.387 115.88 771.228 108.953C777.804 102.218 783.97 100.673 793.29 102.015C794.969 103.016 795.78 103.5 796.414 104.156C796.933 104.693 797.332 105.346 797.991 106.493C798.038 106.574 798.086 106.659 798.136 106.746C798.186 106.833 798.237 106.923 798.29 107.015Z" fill="#000000"/>
<path d="M318.082 90.7234C324.025 95.359 327.815 99.5843 329.207 107.161C329.515 111.582 329.531 115.996 329.55 120.427C329.565 121.697 329.58 122.967 329.595 124.276C329.649 129.009 329.686 133.743 329.722 138.476C329.758 143.127 329.809 147.777 329.863 152.427C329.871 154.273 329.871 154.273 329.879 156.158C329.892 157.296 329.906 158.434 329.919 159.607C329.93 161.111 329.93 161.111 329.942 162.645C330.036 165.408 330.036 165.408 332.207 168.161C333.815 167.79 333.815 167.79 335.457 167.411C339.207 167.161 339.207 167.161 341.644 168.973C343.207 171.161 343.207 171.161 343.207 173.161C340.401 175.739 337.278 177.911 334.207 180.161C333.255 180.938 333.255 180.938 332.285 181.731C326.432 186.108 320.293 186.157 313.207 185.161C308.56 182.998 306.48 180.681 304.207 176.161C303.821 173.271 303.821 173.271 303.806 170.057C303.786 168.245 303.786 168.245 303.765 166.397C303.765 165.101 303.765 163.805 303.765 162.47C303.753 161.119 303.74 159.768 303.725 158.417C303.689 154.869 303.669 151.321 303.654 147.773C303.629 142.092 303.589 136.41 303.532 130.729C303.515 128.748 303.512 126.767 303.509 124.786C303.498 123.581 303.488 122.377 303.478 121.135C303.471 119.546 303.471 119.546 303.465 117.924C303.202 115.117 302.807 113.471 301.207 111.161C296.146 109.474 291.957 109.562 287.144 111.848C279.222 116.245 273.122 122.414 270.207 131.161C270.091 132.832 270.03 134.508 270.001 136.183C269.981 137.204 269.961 138.225 269.941 139.277C269.916 140.927 269.916 140.927 269.89 142.61C269.869 143.738 269.849 144.866 269.827 146.028C269.762 149.634 269.703 153.241 269.644 156.848C269.601 159.292 269.557 161.735 269.513 164.179C269.406 170.173 269.304 176.167 269.207 182.161C267.937 182.657 266.665 183.147 265.393 183.636C264.331 184.047 264.331 184.047 263.247 184.466C260.639 185.354 258.331 185.56 255.582 185.536C254.702 185.544 253.823 185.551 252.917 185.559C249.595 185.071 247.169 183.705 244.207 182.161C244.196 181.095 244.186 180.028 244.175 178.93C244.078 168.88 243.975 158.831 243.867 148.781C243.812 143.614 243.759 138.448 243.709 133.281C243.661 128.295 243.609 123.309 243.554 118.323C243.533 116.421 243.515 114.519 243.497 112.616C243.473 109.952 243.443 107.288 243.412 104.623C243.406 103.837 243.4 103.051 243.394 102.241C243.343 98.4309 243.122 94.8662 242.207 91.1609C245.27 91.0798 248.33 91.0204 251.394 90.9734C252.691 90.9357 252.691 90.9357 254.013 90.8973C258.897 90.8411 262.286 90.8952 266.207 94.1609C268.481 97.5731 268.773 99.8178 269.332 103.848C269.499 105.028 269.667 106.207 269.839 107.423C269.961 108.326 270.082 109.23 270.207 110.161C270.801 109.52 271.395 108.88 272.007 108.22C282.682 97.0801 301.634 82.3546 318.082 90.7234Z" fill="#000000"/>
<path d="M556.207 91.1609C566.229 91.1378 576.251 91.12 586.273 91.1091C590.927 91.1039 595.58 91.0968 600.233 91.0855C604.72 91.0747 609.207 91.0687 613.694 91.0661C615.409 91.0642 617.125 91.0606 618.841 91.0552C621.235 91.048 623.63 91.047 626.025 91.0474C626.741 91.0438 627.457 91.0402 628.196 91.0365C633.092 91.0469 633.092 91.0469 634.207 92.1609C635.5 97.9882 636.181 103.981 632.923 109.228C629.392 113.604 625.313 117.435 621.208 121.265C618.276 124.043 615.551 126.99 612.832 129.973C612.344 130.5 611.857 131.026 611.355 131.568C607.473 135.785 603.874 140.203 600.292 144.677C598.33 147.014 596.284 149.114 594.082 151.223C591.129 154.066 588.781 157.027 586.464 160.407C585.85 161.3 585.235 162.192 584.602 163.112C584.141 163.788 583.681 164.464 583.207 165.161C583.829 165.146 584.45 165.131 585.091 165.116C591.547 164.964 598.003 164.819 604.459 164.679C606.87 164.625 609.282 164.57 611.693 164.513C615.153 164.431 618.614 164.356 622.074 164.282C623.157 164.255 624.24 164.228 625.357 164.2C626.358 164.18 627.358 164.16 628.39 164.139C629.273 164.119 630.157 164.099 631.068 164.079C633.207 164.161 633.207 164.161 635.207 165.161C635.207 171.101 635.207 177.041 635.207 183.161C607.487 183.161 579.767 183.161 551.207 183.161C551.207 167.161 551.207 167.161 555.769 161.661C557.567 160.144 559.379 158.642 561.207 157.161C562.324 155.963 563.411 154.735 564.457 153.473C567.921 149.423 571.559 145.547 575.207 141.661C579.356 137.236 583.467 132.798 587.421 128.196C590.346 124.862 593.369 121.618 596.389 118.371C598.828 115.733 601.078 113.052 603.207 110.161C598.915 110.132 594.623 110.114 590.332 110.098C589.128 110.09 587.924 110.082 586.683 110.073C580.482 110.056 574.418 110.222 568.257 110.932C564.546 111.347 560.936 111.279 557.207 111.161C556.207 110.161 556.207 110.161 556.093 108.303C556.101 107.117 556.101 107.117 556.109 105.907C556.112 105.053 556.115 104.199 556.119 103.319C556.127 102.421 556.135 101.523 556.144 100.598C556.149 99.6968 556.153 98.7951 556.158 97.866C556.17 95.6309 556.186 93.396 556.207 91.1609Z" fill="#000000"/>
<path d="M839.207 28.161C841.207 30.161 841.207 30.161 841.207 32.0985C839.699 35.2084 837.29 35.8487 834.207 37.161C834.207 39.801 834.207 42.441 834.207 45.161C834.841 45.1262 835.475 45.0913 836.128 45.0555C864.745 44.2254 894.255 54.4161 915.207 74.161C916.126 75.013 917.045 75.8651 917.992 76.743C932.844 91.023 947.608 111.555 949.433 132.798C949.457 135.036 949.457 135.036 949.207 138.161C945.577 138.161 941.947 138.161 938.207 138.161C937.588 136.131 937.588 136.131 936.957 134.059C930.866 114.611 921.828 95.8045 905.207 83.161C904.398 82.5293 903.59 81.8977 902.757 81.2469C899.959 79.131 897.11 77.1303 894.207 75.161C893.237 74.4997 892.268 73.8384 891.269 73.1571C865.823 57.2223 833.753 53.624 804.702 59.6834C782.794 64.7621 763.383 74.2719 746.984 89.6922C745.207 91.161 745.207 91.161 743.207 91.161C746.853 83.0014 754.375 76.6907 761.207 71.161C762.068 70.4507 762.929 69.7404 763.816 69.0086C771.732 62.7505 780.043 58.3046 789.207 54.161C790.253 53.6763 791.3 53.1916 792.378 52.6922C803.221 48.0854 816.359 44.9268 828.207 45.161C827.877 44.666 827.547 44.171 827.207 43.661C825.795 40.1332 825.51 36.8656 826.207 33.161C829.879 27.6524 833.052 27.4547 839.207 28.161Z" fill="#000000"/>
<path d="M198.207 92.1609C201.977 92.103 205.748 92.0674 209.519 92.0359C210.591 92.0192 211.663 92.0024 212.767 91.9852C213.795 91.9787 214.823 91.9723 215.882 91.9656C216.83 91.9552 217.778 91.9447 218.755 91.9339C221.207 92.1609 221.207 92.1609 224.207 94.1609C224.493 97.002 224.585 99.6241 224.547 102.466C224.548 103.754 224.548 103.754 224.548 105.068C224.546 107.914 224.523 110.76 224.5 113.606C224.494 115.576 224.49 117.547 224.487 119.517C224.475 124.708 224.446 129.9 224.413 135.092C224.382 140.387 224.368 145.682 224.353 150.977C224.321 161.372 224.27 171.766 224.207 182.161C221.038 183.476 218.549 184.415 215.105 184.427C213.999 184.43 213.999 184.43 212.871 184.434C212.115 184.427 211.36 184.419 210.582 184.411C209.437 184.423 209.437 184.423 208.269 184.434C204.399 184.421 202.496 184.354 199.207 182.161C198.891 179.263 198.769 176.575 198.774 173.672C198.764 172.794 198.754 171.916 198.743 171.011C198.713 168.1 198.704 165.189 198.695 162.278C198.678 160.263 198.66 158.248 198.64 156.233C198.593 150.923 198.563 145.613 198.537 140.303C198.507 134.887 198.461 129.471 198.416 124.055C198.329 113.424 198.262 102.793 198.207 92.1609Z" fill="#000000"/>
<path d="M932.855 145.923C934.03 145.915 935.205 145.907 936.415 145.898C938.881 145.884 941.347 145.874 943.812 145.866C946.336 145.854 948.859 145.834 951.383 145.804C955.04 145.762 958.697 145.745 962.355 145.735C963.484 145.718 964.613 145.7 965.777 145.682C967.35 145.687 967.35 145.687 968.954 145.691C970.334 145.682 970.334 145.682 971.743 145.673C975.005 146.319 976.192 147.561 978.207 150.161C978.928 156.032 978.928 156.032 977.125 158.855C974.167 160.869 971.618 160.52 968.073 160.502C966.99 160.502 966.99 160.502 965.885 160.503C963.498 160.501 961.112 160.477 958.726 160.454C957.071 160.448 955.416 160.444 953.762 160.441C949.407 160.43 945.052 160.4 940.697 160.367C936.253 160.336 931.809 160.323 927.365 160.307C918.645 160.275 909.926 160.224 901.207 160.161C901.207 159.501 901.207 158.841 901.207 158.161C900.637 158.166 900.068 158.171 899.482 158.177C896.869 158.198 894.257 158.211 891.644 158.223C890.301 158.236 890.301 158.236 888.931 158.249C887.611 158.254 887.611 158.254 886.265 158.259C885.464 158.264 884.663 158.269 883.837 158.274C881.207 158.161 881.207 158.161 877.966 157.688C873.637 157.081 869.355 156.832 864.992 156.626C864.136 156.583 863.28 156.54 862.399 156.496C859.689 156.36 856.979 156.229 854.269 156.098C852.422 156.007 850.575 155.915 848.728 155.823C844.221 155.599 839.714 155.379 835.207 155.161C834.877 154.171 834.547 153.181 834.207 152.161C834.76 152.106 835.314 152.05 835.884 151.993C836.658 151.916 837.432 151.838 838.23 151.759C842.565 151.325 846.9 150.892 851.235 150.458C852.955 150.286 854.674 150.11 856.392 149.922C862.558 149.267 868.699 148.899 874.894 148.661C875.877 148.62 876.86 148.58 877.873 148.538C882.031 148.366 886.19 148.201 890.348 148.036C893.405 147.913 896.462 147.787 899.519 147.661C900.442 147.626 901.365 147.59 902.317 147.554C906.595 147.377 910.828 147.118 915.084 146.645C921.004 146.019 926.906 145.962 932.855 145.923Z" fill="#000000"/>
<path d="M949.207 172.161C948.967 178.277 948.967 178.277 946.91 180.669C940.03 186.356 935.725 186.546 927.082 186.536C925.777 186.537 924.472 186.537 923.127 186.538C899.125 186.368 875.123 184.012 851.207 182.161C848.776 181.974 846.346 181.787 843.916 181.6C842.013 181.454 840.11 181.307 838.207 181.161C838.207 180.501 838.207 179.841 838.207 179.161C845.436 178.136 852.67 177.712 859.957 177.286C862.807 177.115 865.657 176.941 868.507 176.766C869.267 176.72 870.026 176.674 870.808 176.626C882.772 175.887 894.73 175.043 906.688 174.214C938.784 171.996 938.784 171.996 949.207 172.161Z" fill="#000000"/>
<path d="M222.144 51.9734C226.38 56.4666 226.698 60.441 226.593 66.4617C225.979 70.747 224.421 72.3118 221.207 75.1609C216.51 78.049 211.55 77.7883 206.207 77.1609C201.776 75.0249 199.045 72.757 197.207 68.1609C196.332 63.9329 196.324 60.6468 198.566 56.8719C204.844 49.233 213.342 46.5424 222.144 51.9734Z" fill="#000000"/>
<path d="M864.207 73.161C869.541 72.6978 873.267 74.2389 877.894 76.661C878.596 77.0212 879.298 77.3814 880.021 77.7525C886.189 80.9982 891.78 84.7823 897.207 89.161C898.28 90.0059 898.28 90.0059 899.375 90.868C908.941 98.7694 918.446 110.231 920.082 122.911C920.123 123.983 920.164 125.056 920.207 126.161C916.086 128.159 912.755 128.339 908.207 128.161C908.143 127.602 908.08 127.042 908.015 126.466C905.473 109.819 894.333 94.3873 881.234 84.2391C875.776 80.4928 870.037 77.2849 864.207 74.161C864.207 73.831 864.207 73.501 864.207 73.161Z" fill="#000000"/>
<path d="M831.207 2.16095C831.867 2.16095 832.527 2.16095 833.207 2.16095C833.516 3.2747 833.516 3.2747 833.832 4.41095C836.319 9.38505 840.817 11.0256 845.769 12.9734C850.425 15.0025 853.272 17.3943 855.207 22.1609C856.215 27.7836 855.457 32.3931 852.207 37.1609C850.292 39.0024 848.334 40.5536 846.207 42.1609C845.547 41.8309 844.887 41.5009 844.207 41.1609C844.867 40.5009 845.527 39.8409 846.207 39.1609C848.312 36.0034 848.875 33.9395 848.64 30.1414C847.86 26.5788 845.943 24.389 843.207 22.1609C840.686 20.5558 838.142 19.0687 835.511 17.6531C833.019 16.0395 831.698 14.7201 830.207 12.1609C829.666 8.75168 829.641 5.29127 831.207 2.16095Z" fill="#000000"/>
<path d="M35.2066 15.1609C35.5366 15.1609 35.8666 15.1609 36.2066 15.1609C36.2066 29.681 36.2066 44.2009 36.2066 59.1609C34.2266 59.6559 34.2266 59.6559 32.2066 60.1609C30.0483 54.0907 29.9981 48.5672 30.2066 42.1609C30.5366 42.1609 30.8666 42.1609 31.2066 42.1609C31.2556 42.8596 31.3046 43.5583 31.3551 44.2781C31.4298 45.1882 31.5046 46.0983 31.5816 47.0359C31.6512 47.9409 31.7208 48.8458 31.7926 49.7781C32.0023 52.3404 32.0023 52.3404 34.2066 54.1609C34.5366 41.2909 34.8666 28.4209 35.2066 15.1609Z" fill="#565456"/>
<path d="M30.2066 42.1609C30.5366 42.1609 30.8666 42.1609 31.2066 42.1609C31.2556 42.8596 31.3045 43.5583 31.355 44.2781C31.4298 45.1882 31.5045 46.0983 31.5816 47.0359C31.6512 47.9409 31.7208 48.8458 31.7925 49.7781C32.0023 52.3404 32.0023 52.3404 34.2066 54.1609C34.6042 56.1492 34.9443 58.1504 35.2066 60.1609C33.8866 59.8309 32.5666 59.5009 31.2066 59.1609C29.9814 53.4945 30.1143 47.9239 30.2066 42.1609Z" fill="#403F3F"/>
<path fill-rule="evenodd" clip-rule="evenodd" d="M390.577 132.469C390.525 132.498 390.472 132.527 390.42 132.555C390.469 132.529 390.518 132.502 390.566 132.475L390.577 132.469Z" fill="#000000"/>
</svg>
